<svg width="983" height="255" viewBox="0 0 983 255" fill="none" xmlns="http://www.w3.org/2000/svg">
<rect width="983" height="255" rx="16" fill="#2A6DE8"/>
<path d="M53 46H41V58V188V200H53H173C199.51 200 221 178.51 221 152V94C221 67.4903 199.51 46 173 46H53Z" stroke="white" stroke-width="24"/>
<path d="M85.9573 101.141L129.503 151.097L239.81 41" stroke="#2A6DE8" stroke-width="48"/>
<path d="M84 102.903L126.784 151.985C127.188 152.449 127.913 152.493 128.327 152.079L237.853 42.7616" stroke="white" stroke-width="24"/>
<path d="M272.878 197V49.3636H361.979V65.223H290.756V115.108H357.365V130.967H290.756V181.141H363.132V197H272.878ZM400.257 49.3636L444.087 173.643H445.817L489.647 49.3636H508.39L454.179 197H435.725L381.515 49.3636H400.257ZM549.263 49.3636V197H531.386V49.3636H549.263ZM585.109 197V49.3636H674.21V65.223H602.987V115.108H669.597V130.967H602.987V181.141H675.364V197H585.109ZM706.434 197V49.3636H756.318C767.853 49.3636 777.32 51.334 784.721 55.2749C792.122 59.1676 797.601 64.5262 801.157 71.3505C804.714 78.1748 806.492 85.9363 806.492 94.6349C806.492 103.334 804.714 111.047 801.157 117.775C797.601 124.503 792.146 129.79 784.793 133.635C777.44 137.431 768.045 139.33 756.607 139.33H716.237V123.182H756.03C763.912 123.182 770.255 122.028 775.061 119.722C779.915 117.415 783.424 114.147 785.586 109.918C787.797 105.64 788.902 100.546 788.902 94.6349C788.902 88.7237 787.797 83.5574 785.586 79.136C783.376 74.7146 779.843 71.3024 774.989 68.8995C770.135 66.4485 763.719 65.223 755.742 65.223H724.311V197H706.434ZM775.926 130.679L812.259 197H791.497L755.742 130.679H775.926ZM842.338 197H823.595L877.805 49.3636H896.259L950.47 197H931.727L887.609 72.7202H886.455L842.338 197ZM849.258 139.33H924.806V155.189H849.258V139.33Z" fill="white"/>
</svg>
